HIERARCHY
ROOT SpineBase
{
  OFFSET 0.000000 0.000000 0.000000
  CHANNELS 6 Xposition Yposition Zposition Zrotation Xrotation Yrotation
  JOINT SpineMid
  {
    OFFSET 0.000000 28.373676 0.000000
    CHANNELS 3 Zrotation Xrotation Yrotation
    JOINT SpineShoulder
    {
      OFFSET -0.123765 21.102461 -0.930529
      CHANNELS 3 Zrotation Xrotation Yrotation
      JOINT Neck
      {
        OFFSET 0.004681 6.957213 -0.594416
        CHANNELS 3 Zrotation Xrotation Yrotation
        JOINT Head
        {
          OFFSET -1.331930 13.497112 -0.998861
          CHANNELS 3 Zrotation Xrotation Yrotation
          End Site
          {
            OFFSET 0 0 0
          }
        }
      }
      JOINT ShoulderLeft
      {
        OFFSET -16.540332 -5.016944 2.717663
        CHANNELS 3 Zrotation Xrotation Yrotation
        JOINT ElbowLeft
        {
          OFFSET -0.607578 -27.095121 2.578610
          CHANNELS 3 Zrotation Xrotation Yrotation
          JOINT WristLeft
          {
            OFFSET 1.306814 -21.364857 -4.501231
            CHANNELS 3 Zrotation Xrotation Yrotation
            JOINT HandLeft
            {
              OFFSET 0.753668 -3.192921 -0.215020
              CHANNELS 3 Zrotation Xrotation Yrotation
              JOINT HandTipLeft
              {
                OFFSET 2.283323 -6.396351 -1.003464
                CHANNELS 3 Zrotation Xrotation Yrotation
                End Site
                {
                  OFFSET 0 0 0
                }
              }
              JOINT ThumbLeft
              {
                OFFSET 3.190045 0.119568 -4.038857
                CHANNELS 3 Zrotation Xrotation Yrotation
                End Site
                {
                  OFFSET 0 0 0
                }
              }
            }
          }
        }
      }
      JOINT ShoulderRight
      {
        OFFSET 14.224320 -4.437593 -7.676647
        CHANNELS 3 Zrotation Xrotation Yrotation
        JOINT ElbowRight
        {
          OFFSET 3.943650 -25.079566 -0.635655
          CHANNELS 3 Zrotation Xrotation Yrotation
          JOINT WristRight
          {
            OFFSET 0.080375 -21.001293 -6.488815
            CHANNELS 3 Zrotation Xrotation Yrotation
            JOINT HandRight
            {
              OFFSET -1.475663 -5.366580 -0.142912
              CHANNELS 3 Zrotation Xrotation Yrotation
              JOINT HandTipRight
              {
                OFFSET -0.305067 -4.449214 0.216549
                CHANNELS 3 Zrotation Xrotation Yrotation
                End Site
                {
                  OFFSET 0 0 0
                }
              }
              JOINT ThumbRight
              {
                OFFSET -2.583496 1.104622 -1.166027
                CHANNELS 3 Zrotation Xrotation Yrotation
                End Site
                {
                  OFFSET 0 0 0
                }
              }
            }
          }
        }
      }
    }
  }
  JOINT HipLeft
  {
    OFFSET -6.103646 0.377192 -1.746961
    CHANNELS 3 Zrotation Xrotation Yrotation
    JOINT KneeLeft
    {
      OFFSET 6.740168 -30.227588 8.710292
      CHANNELS 3 Zrotation Xrotation Yrotation
      JOINT AnkleLeft
      {
        OFFSET 5.036787 -31.186105 8.122771
        CHANNELS 3 Zrotation Xrotation Yrotation
        JOINT FootLeft
        {
          OFFSET -1.076191 -6.142666 -8.078477
          CHANNELS 3 Zrotation Xrotation Yrotation
          End Site
          {
            OFFSET 0 0 0
          }
        }
      }
    }
  }
  JOINT HipRight
  {
    OFFSET 5.888418 0.794235 -5.123396
    CHANNELS 3 Zrotation Xrotation Yrotation
    JOINT KneeRight
    {
      OFFSET 4.922776 -28.699092 6.643458
      CHANNELS 3 Zrotation Xrotation Yrotation
      JOINT AnkleRight
      {
        OFFSET 4.119750 -33.222653 8.581750
        CHANNELS 3 Zrotation Xrotation Yrotation
        JOINT FootRight
        {
          OFFSET -3.004267 -6.010212 -4.092843
          CHANNELS 3 Zrotation Xrotation Yrotation
          End Site
          {
            OFFSET 0 0 0
          }
        }
      }
    }
  }
}
MOTION
Frames: 15
Frame Time: 0.033333
-15.138758 79.994531 367.503799 7.631114 -3.928747 -4.736386 -2.000818 1.081102 5.235864 0.768049 0.026470 0.299680 2.767074 17.580502 0.107911 0.000000 0.000000 0.000000 20.971247 39.796072 -9.702366 -21.137982 -30.758495 -7.646802 -12.405718 0.520316 2.050157 0.322936 -2.453688 0.593232 0.000000 0.000000 0.000000 0.000000 0.000000 0.000000 -4.622772 7.408039 0.127466 -4.820057 -14.802299 -0.438634 40.670566 0.467771 -3.548695 -28.402395 10.219097 0.240558 0.000000 0.000000 0.000000 0.000000 0.000000 0.000000 -1.653387 -0.919268 5.727744 -4.040902 18.120831 1.924604 -16.145451 -5.174597 10.632370 0.000000 0.000000 0.000000 -53.300998 19.558891 8.062165 83.851365 -5.013579 31.002790 -32.616573 13.562931 -15.820617 0.000000 0.000000 0.000000
-18.008099 78.884090 368.006861 6.552012 -3.541098 -12.561128 -1.008258 0.918775 12.972062 0.406982 -0.035948 0.281891 4.057293 17.862265 0.055173 0.000000 0.000000 0.000000 24.197582 43.687905 -11.957400 -22.607227 -33.710473 -8.777200 -6.926884 -5.862994 0.529477 -2.736623 2.377553 1.861307 0.000000 0.000000 0.000000 0.000000 0.000000 0.000000 -3.858595 6.764826 0.033062 -5.015177 -15.727912 -0.418957 49.327377 0.635729 -5.353955 -35.381455 8.631158 1.087730 0.000000 0.000000 0.000000 0.000000 0.000000 0.000000 7.533665 -2.325105 15.031787 -23.386455 25.631390 2.156270 -3.715748 -9.389474 12.437947 0.000000 0.000000 0.000000 -55.524977 11.119607 10.963134 86.801905 -2.544349 29.787031 -43.870267 17.451894 -7.691816 0.000000 0.000000 0.000000
-22.410500 77.872383 368.191885 4.414386 -2.861374 -22.621210 -0.332533 0.697020 22.885274 -0.057909 -0.209062 0.198341 8.986360 18.370170 -0.128832 0.000000 0.000000 0.000000 25.081709 44.815249 -11.842760 -22.468380 -34.811452 -8.869330 0.524790 -9.962622 0.005643 -7.465630 6.718663 3.314540 0.000000 0.000000 0.000000 0.000000 0.000000 0.000000 -1.897120 6.149168 0.080740 -4.437778 -16.644579 -0.450803 61.368458 10.021389 -17.334650 -43.888435 -4.841910 1.753103 0.000000 0.000000 0.000000 0.000000 0.000000 0.000000 13.139208 -1.372573 25.287987 -34.208418 28.911642 3.828366 6.381431 -16.437133 13.933916 0.000000 0.000000 0.000000 -49.920788 1.894892 16.612450 81.849512 -1.806893 27.058003 -53.591595 18.561742 0.171021 0.000000 0.000000 0.000000
-25.484790 77.138750 368.481302 4.121047 -2.470612 -32.259718 -0.462259 0.461857 32.495117 0.255068 -0.035396 0.195135 9.987884 18.325756 -0.140897 0.000000 0.000000 0.000000 20.476730 42.339032 -9.313401 -20.968007 -33.815314 -7.947093 5.826821 -13.384154 -0.834386 -7.804759 9.864659 3.728710 0.000000 0.000000 0.000000 0.000000 0.000000 0.000000 -2.314597 5.621268 0.121052 -5.547913 -18.832500 -0.302341 47.282947 1.403276 -6.460090 -29.003000 9.735733 0.424337 0.000000 0.000000 0.000000 0.000000 0.000000 0.000000 12.034833 -0.734747 34.263841 -38.575000 27.285530 4.335947 11.398816 -20.261436 19.626649 0.000000 0.000000 0.000000 -37.404926 -4.939235 25.595639 69.882843 -0.753266 22.003653 -52.256435 14.572227 -1.197807 0.000000 0.000000 0.000000
-28.427907 76.685028 368.628750 4.286683 -2.044167 -35.998824 -0.659540 0.398130 36.224300 0.169635 0.017765 0.185252 11.211722 17.245381 -0.106642 0.000000 0.000000 0.000000 18.837744 42.545537 -8.727606 -20.935450 -34.730363 -8.048182 12.589124 -10.870115 -0.193917 -16.630441 9.083939 5.128778 0.000000 0.000000 0.000000 0.000000 0.000000 0.000000 -4.379998 5.642288 0.389292 -2.938459 -20.479755 -0.512661 36.960805 -3.733007 -0.707198 -16.803775 18.097069 -3.321605 0.000000 0.000000 0.000000 0.000000 0.000000 0.000000 5.031860 -3.860499 36.372975 -35.322260 23.206497 3.859603 21.232444 -37.828281 27.241394 0.000000 0.000000 0.000000 -24.128573 -4.898162 32.075610 55.130850 1.737799 16.131309 -55.749551 8.759009 1.688223 0.000000 0.000000 0.000000
-31.005878 76.372737 368.733878 4.731327 -1.630883 -38.282533 -0.656362 0.534242 38.517233 0.203597 0.008717 0.208820 12.361825 16.532329 -0.163241 0.000000 0.000000 0.000000 16.418696 42.795764 -8.188045 -20.627639 -35.527043 -8.035744 13.656473 -7.211785 0.020093 -19.236251 7.365016 4.999020 0.000000 0.000000 0.000000 0.000000 0.000000 0.000000 -6.765576 5.743512 0.568668 -1.957411 -22.781741 -0.634224 36.160037 -0.097894 -3.163292 -17.911339 15.914755 -2.330975 0.000000 0.000000 0.000000 0.000000 0.000000 0.000000 -5.802101 -9.343164 35.368514 -26.093916 16.841686 2.780268 29.001419 -44.227722 32.632127 0.000000 0.000000 0.000000 -11.991208 -3.420073 36.896861 40.471031 6.453169 10.094739 -47.672619 -0.451729 -2.463392 0.000000 0.000000 0.000000
-33.079879 76.217354 369.509097 6.196750 -1.903424 -38.380915 -0.541837 0.805342 38.705264 0.107004 0.105049 0.267850 8.700025 16.121425 -0.125041 0.000000 0.000000 0.000000 13.314146 43.752182 -8.079395 -20.587182 -36.633208 -8.207785 15.103276 -12.005623 -0.798795 -22.798715 16.888259 10.424533 0.000000 0.000000 0.000000 0.000000 0.000000 0.000000 -9.836593 6.294837 0.660150 -1.915759 -24.370335 -0.702093 38.602784 2.109547 -5.604639 -24.068411 16.349707 -1.052905 0.000000 0.000000 0.000000 0.000000 0.000000 0.000000 -23.375342 -15.145551 29.240692 -8.719067 8.618013 2.516898 31.302569 -45.468307 32.529882 0.000000 0.000000 0.000000 -1.938894 -0.488524 39.281192 25.348492 12.390819 4.828280 -41.670182 -5.285566 -5.010864 0.000000 0.000000 0.000000
-35.891736 75.683893 370.382087 7.247706 -2.222530 -41.598413 -0.834093 0.446656 41.989906 0.268554 0.005582 0.314301 7.617094 16.869874 -0.276450 0.000000 0.000000 0.000000 10.979582 44.922142 -7.923357 -19.779691 -37.172020 -7.948995 8.626578 -9.485122 -1.104842 -18.176626 11.606014 8.024211 0.000000 0.000000 0.000000 0.000000 0.000000 0.000000 -12.911711 7.054695 0.934017 -0.307731 -24.401123 -0.664756 38.006221 5.885148 -7.856781 -25.941263 12.111245 -0.123753 0.000000 0.000000 0.000000 0.000000 0.000000 0.000000 -37.499818 -20.195800 25.592905 10.746544 1.353267 4.338800 17.982776 -38.945108 33.427214 0.000000 0.000000 0.000000 9.813303 3.723843 44.303534 11.660796 23.088513 -0.032935 -32.908895 -18.569592 -9.392290 0.000000 0.000000 0.000000
-39.373914 75.505639 371.291069 7.699213 -2.549978 -40.839713 -0.719486 0.482033 41.282573 0.352140 -0.068715 0.349502 5.277709 16.696827 -0.239228 0.000000 0.000000 0.000000 8.722803 46.130932 -7.667454 -18.885524 -37.926006 -7.673940 2.762401 -13.569111 -2.694656 -12.838925 19.661641 11.421502 0.000000 0.000000 0.000000 0.000000 0.000000 0.000000 -16.332804 7.840278 1.346373 0.984934 -25.316888 -0.658643 39.392410 9.508596 -10.785107 -27.544158 9.491378 0.231220 0.000000 0.000000 0.000000 0.000000 0.000000 0.000000 -46.147612 -20.301132 21.472086 24.265461 -1.946061 7.025555 5.678299 -35.153553 35.632352 0.000000 0.000000 0.000000 15.636603 5.568402 44.058534 5.542581 27.057906 -1.731984 -28.502314 -15.693175 -12.756717 0.000000 0.000000 0.000000
-43.943505 75.143516 372.184239 7.223961 -2.739725 -48.636903 -1.088051 -0.082752 49.051954 0.610984 -0.113640 0.327663 6.764697 16.751958 -0.297585 0.000000 0.000000 0.000000 7.090908 48.100766 -7.098437 -17.046934 -40.216577 -7.145285 1.220440 -27.322459 -6.758541 -22.682154 33.882288 24.441664 0.000000 0.000000 0.000000 0.000000 0.000000 0.000000 -17.808009 8.410642 1.800707 3.030014 -25.850365 -0.676934 27.383304 1.125834 -2.845256 -16.957388 20.087906 -2.189377 0.000000 0.000000 0.000000 0.000000 0.000000 0.000000 -46.846972 -26.161346 25.795557 34.750927 -2.031686 9.948096 -3.514728 -35.000304 34.601899 0.000000 0.000000 0.000000 15.735497 8.960337 51.545058 5.033898 23.860107 -1.475611 -24.746719 -0.429489 -18.328920 0.000000 0.000000 0.000000
-49.315770 74.718049 372.943717 6.166467 -3.114183 -47.513776 -1.202151 -0.313012 47.881509 0.440726 -0.259405 0.268236 7.628470 18.513257 -0.268515 0.000000 0.000000 0.000000 5.386867 49.177481 -5.911371 -14.827296 -40.751541 -6.165135 -11.711318 -44.255794 -17.533379 -27.899001 49.629546 40.881042 0.000000 0.000000 0.000000 0.000000 0.000000 0.000000 -18.428719 8.796349 2.269760 4.307850 -25.168349 -0.514784 25.833752 -1.404168 -1.613592 -14.397180 25.512329 -3.368251 0.000000 0.000000 0.000000 0.000000 0.000000 0.000000 -42.528088 -23.068763 28.520621 35.097741 -0.875244 10.353690 -12.994696 -38.653831 40.184217 0.000000 0.000000 0.000000 11.982531 6.963914 49.958780 8.852141 14.429719 0.675806 -15.064811 28.378818 -30.562582 0.000000 0.000000 0.000000
-54.832137 74.309444 373.656227 4.800068 -3.238772 -37.505436 -1.296875 -0.245949 37.790666 0.446160 -0.159908 0.200047 8.452117 18.877321 -0.119456 0.000000 0.000000 0.000000 4.002661 49.866505 -4.732754 -14.469445 -42.314495 -6.312195 -22.471559 -45.251025 -24.170154 -23.653932 52.929648 43.458830 0.000000 0.000000 0.000000 0.000000 0.000000 0.000000 -17.955569 8.321884 2.365452 6.357176 -23.305244 -0.307727 19.038462 -0.260444 -0.561104 -8.933404 24.196564 -3.982724 0.000000 0.000000 0.000000 0.000000 0.000000 0.000000 -34.350297 -13.373531 25.929869 25.746424 2.118436 8.234954 -15.302700 -40.354757 39.570253 0.000000 0.000000 0.000000 7.627476 5.924581 39.712081 11.844069 0.621661 3.156695 4.761290 35.877553 -47.074304 0.000000 0.000000 0.000000
-60.245730 74.072837 374.508860 3.536857 -3.655037 -32.089229 -1.390391 -0.268203 32.304174 0.314122 -0.138436 0.133027 10.445805 20.585430 -0.195919 0.000000 0.000000 0.000000 2.411978 50.033224 -3.356166 -15.510332 -43.804353 -7.287725 -25.296025 -41.429852 -25.011995 -17.034385 50.300666 39.230415 0.000000 0.000000 0.000000 0.000000 0.000000 0.000000 -17.639321 8.323011 2.619049 8.919818 -22.012143 -0.227810 21.696417 8.305461 -4.410903 -14.589953 11.193745 -0.954111 0.000000 0.000000 0.000000 0.000000 0.000000 0.000000 -27.602254 -7.763732 24.548435 21.977773 5.596110 7.649866 -20.657936 -31.367725 31.134063 0.000000 0.000000 0.000000 -1.421391 8.130830 34.190457 17.435387 -17.764418 6.479250 28.342298 56.468037 -73.786721 0.000000 0.000000 0.000000
-64.673573 74.403819 374.879462 2.810068 -3.413358 -26.766272 -1.003331 0.108487 26.932296 0.539764 -0.009261 0.132296 9.472342 20.081558 0.020964 0.000000 0.000000 0.000000 -0.759068 48.845197 -1.989089 -17.065438 -45.211925 -8.632873 -25.286610 -33.508197 -21.709534 -5.481353 41.912619 27.825556 0.000000 0.000000 0.000000 0.000000 0.000000 0.000000 -18.800528 7.718042 2.592971 9.553392 -21.785218 -0.131279 24.038704 7.729257 -4.933549 -18.428019 7.965850 -0.375280 0.000000 0.000000 0.000000 0.000000 0.000000 0.000000 -20.631343 -4.027322 21.863722 17.945639 8.109327 6.606074 -20.562008 -21.761701 22.168194 0.000000 0.000000 0.000000 -9.804248 9.597245 28.804610 23.562443 -35.110183 9.198755 59.259558 55.765227 -104.341498 0.000000 0.000000 0.000000
-69.218943 75.008337 375.253530 2.075436 -2.976958 -22.016338 -1.055852 0.100137 22.122106 -0.066654 0.033108 0.058386 10.697430 18.759747 0.222570 0.000000 0.000000 0.000000 -2.565884 47.559285 -0.615937 -19.201363 -46.875964 -10.487867 -23.120080 -17.393631 -12.037769 5.823041 23.539157 13.477317 0.000000 0.000000 0.000000 0.000000 0.000000 0.000000 -18.402650 7.424525 2.719780 11.567329 -21.391061 -0.164364 31.391146 7.954468 -6.898215 -27.892675 2.491503 0.671430 0.000000 0.000000 0.000000 0.000000 0.000000 0.000000 -14.014979 -1.132439 19.133888 14.622359 8.795703 5.416979 -16.969657 -16.548932 12.805709 0.000000 0.000000 0.000000 -18.151839 11.685972 24.154121 29.674806 -51.327830 10.888060 80.290901 58.202968 -121.742876 0.000000 0.000000 0.000000
